<svg width="350" height="80" viewBox="0 0 350 80" fill="none" xmlns="http://www.w3.org/2000/svg">
<path d="M120.266 15.625V27H117.914V17.5234H114.883L114.695 21.5391C114.617 22.8932 114.445 23.9609 114.18 24.7422C113.914 25.5182 113.526 26.0885 113.016 26.4531C112.505 26.8125 111.807 26.9948 110.922 27H110.312V25.1172L110.703 25.0781C111.292 25 111.711 24.6615 111.961 24.0625C112.216 23.4583 112.378 22.3854 112.445 20.8438L112.641 15.625H120.266ZM127.258 18.5469H129.516V27H127.258V21.7812L124.43 27H122.164V18.5469H124.43V23.7578L127.258 18.5469ZM138.367 27H136.109V24.3438C135.688 24.4219 135.294 24.4609 134.93 24.4609C133.654 24.4609 132.693 24.1901 132.047 23.6484C131.401 23.1068 131.073 22.3151 131.062 21.2734V18.5469H133.32V21.2734C133.326 21.763 133.445 22.1146 133.68 22.3281C133.914 22.5365 134.331 22.6406 134.93 22.6406C135.305 22.6406 135.698 22.5964 136.109 22.5078V18.5469H138.367V27ZM147.43 27H145.164V23.75H142.359V27H140.102V18.5469H142.359V21.9375H145.164V18.5469H147.43V27ZM148.828 22.6953C148.828 21.8568 148.99 21.1094 149.312 20.4531C149.635 19.7969 150.099 19.2891 150.703 18.9297C151.312 18.5703 152.018 18.3906 152.82 18.3906C153.961 18.3906 154.891 18.7396 155.609 19.4375C156.333 20.1354 156.737 21.0833 156.82 22.2812L156.836 22.8594C156.836 24.1562 156.474 25.1979 155.75 25.9844C155.026 26.7656 154.055 27.1562 152.836 27.1562C151.617 27.1562 150.643 26.7656 149.914 25.9844C149.19 25.2031 148.828 24.1406 148.828 22.7969V22.6953ZM151.086 22.8594C151.086 23.6615 151.237 24.276 151.539 24.7031C151.841 25.125 152.273 25.3359 152.836 25.3359C153.383 25.3359 153.81 25.1276 154.117 24.7109C154.424 24.2891 154.578 23.6172 154.578 22.6953C154.578 21.9089 154.424 21.2995 154.117 20.8672C153.81 20.4349 153.378 20.2188 152.82 20.2188C152.268 20.2188 151.841 20.4349 151.539 20.8672C151.237 21.2943 151.086 21.9583 151.086 22.8594ZM169.562 27H167.297V20.375H164.469V27H162.211V18.5469H169.562V27ZM170.938 22.6953C170.938 21.8568 171.099 21.1094 171.422 20.4531C171.745 19.7969 172.208 19.2891 172.812 18.9297C173.422 18.5703 174.128 18.3906 174.93 18.3906C176.07 18.3906 177 18.7396 177.719 19.4375C178.443 20.1354 178.846 21.0833 178.93 22.2812L178.945 22.8594C178.945 24.1562 178.583 25.1979 177.859 25.9844C177.135 26.7656 176.164 27.1562 174.945 27.1562C173.727 27.1562 172.753 26.7656 172.023 25.9844C171.299 25.2031 170.938 24.1406 170.938 22.7969V22.6953ZM173.195 22.8594C173.195 23.6615 173.346 24.276 173.648 24.7031C173.951 25.125 174.383 25.3359 174.945 25.3359C175.492 25.3359 175.919 25.1276 176.227 24.7109C176.534 24.2891 176.688 23.6172 176.688 22.6953C176.688 21.9089 176.534 21.2995 176.227 20.8672C175.919 20.4349 175.487 20.2188 174.93 20.2188C174.378 20.2188 173.951 20.4349 173.648 20.8672C173.346 21.2943 173.195 21.9583 173.195 22.8594ZM184.773 21.0391C184.773 20.7422 184.674 20.513 184.477 20.3516C184.284 20.1849 184.008 20.1016 183.648 20.1016C183.279 20.1016 182.977 20.1797 182.742 20.3359C182.513 20.487 182.398 20.7031 182.398 20.9844H180.141C180.141 20.2188 180.458 19.5964 181.094 19.1172C181.729 18.638 182.542 18.3984 183.531 18.3984C184.62 18.3984 185.474 18.612 186.094 19.0391C186.719 19.4661 187.031 20.0729 187.031 20.8594C187.031 21.2344 186.917 21.5807 186.688 21.8984C186.464 22.2109 186.146 22.4609 185.734 22.6484C186.698 22.987 187.18 23.6406 187.18 24.6094C187.18 25.3854 186.846 26.0052 186.18 26.4688C185.518 26.9271 184.635 27.1562 183.531 27.1562C182.505 27.1562 181.661 26.9167 181 26.4375C180.339 25.9583 180.008 25.3125 180.008 24.5H182.266C182.266 24.7865 182.393 25.0182 182.648 25.1953C182.904 25.3724 183.237 25.4609 183.648 25.4609C184.049 25.4609 184.362 25.3672 184.586 25.1797C184.81 24.9922 184.922 24.7474 184.922 24.4453C184.922 24.0755 184.815 23.8125 184.602 23.6562C184.388 23.4948 184.068 23.4141 183.641 23.4141H182.414V21.9453H183.719C184.422 21.9245 184.773 21.6224 184.773 21.0391ZM195.883 27H193.617V23.75H190.812V27H188.555V18.5469H190.812V21.9375H193.617V18.5469H195.883V27ZM202.531 27C202.427 26.7969 202.352 26.5443 202.305 26.2422C201.758 26.8516 201.047 27.1562 200.172 27.1562C199.344 27.1562 198.656 26.9167 198.109 26.4375C197.568 25.9583 197.297 25.3542 197.297 24.625C197.297 23.7292 197.628 23.0417 198.289 22.5625C198.956 22.0833 199.917 21.8411 201.172 21.8359H202.211V21.3516C202.211 20.9609 202.109 20.6484 201.906 20.4141C201.708 20.1797 201.393 20.0625 200.961 20.0625C200.581 20.0625 200.281 20.1536 200.062 20.3359C199.849 20.5182 199.742 20.7682 199.742 21.0859H197.484C197.484 20.5964 197.635 20.1432 197.938 19.7266C198.24 19.3099 198.667 18.9844 199.219 18.75C199.771 18.5104 200.391 18.3906 201.078 18.3906C202.12 18.3906 202.945 18.6536 203.555 19.1797C204.169 19.7005 204.477 20.4349 204.477 21.3828V25.0469C204.482 25.849 204.594 26.4557 204.812 26.8672V27H202.531ZM200.664 25.4297C200.997 25.4297 201.305 25.3568 201.586 25.2109C201.867 25.0599 202.076 24.8594 202.211 24.6094V23.1562H201.367C200.237 23.1562 199.635 23.5469 199.562 24.3281L199.555 24.4609C199.555 24.7422 199.654 24.974 199.852 25.1562C200.049 25.3385 200.32 25.4297 200.664 25.4297ZM209.523 23.8828H208.617V27H206.359V18.5469H208.617V21.7266H209.422L211.266 18.5469H214.117L211.352 22.5703L214.375 27H211.367L209.523 23.8828ZM214.422 22.6953C214.422 21.8568 214.583 21.1094 214.906 20.4531C215.229 19.7969 215.693 19.2891 216.297 18.9297C216.906 18.5703 217.612 18.3906 218.414 18.3906C219.555 18.3906 220.484 18.7396 221.203 19.4375C221.927 20.1354 222.331 21.0833 222.414 22.2812L222.43 22.8594C222.43 24.1562 222.068 25.1979 221.344 25.9844C220.62 26.7656 219.648 27.1562 218.43 27.1562C217.211 27.1562 216.237 26.7656 215.508 25.9844C214.784 25.2031 214.422 24.1406 214.422 22.7969V22.6953ZM216.68 22.8594C216.68 23.6615 216.831 24.276 217.133 24.7031C217.435 25.125 217.867 25.3359 218.43 25.3359C218.977 25.3359 219.404 25.1276 219.711 24.7109C220.018 24.2891 220.172 23.6172 220.172 22.6953C220.172 21.9089 220.018 21.2995 219.711 20.8672C219.404 20.4349 218.971 20.2188 218.414 20.2188C217.862 20.2188 217.435 20.4349 217.133 20.8672C216.831 21.2943 216.68 21.9583 216.68 22.8594ZM228.969 24.3359L231.18 18.5469H234.008V27H231.75V21.8125L229.727 27H228.211L226.227 21.8984V27H223.969V18.5469H226.773L228.969 24.3359ZM241.07 18.5469H243.328V27H241.07V21.7812L238.242 27H235.977V18.5469H238.242V23.7578L241.07 18.5469ZM252.07 20.3594H249.359V27H247.094V20.3594H244.43V18.5469H252.07V20.3594ZM256.602 27.1562C255.362 27.1562 254.352 26.776 253.57 26.0156C252.794 25.2552 252.406 24.2422 252.406 22.9766V22.7578C252.406 21.9089 252.57 21.151 252.898 20.4844C253.227 19.8125 253.69 19.2969 254.289 18.9375C254.893 18.5729 255.581 18.3906 256.352 18.3906C257.508 18.3906 258.417 18.7552 259.078 19.4844C259.745 20.2135 260.078 21.2474 260.078 22.5859V23.5078H254.695C254.768 24.0599 254.987 24.5026 255.352 24.8359C255.721 25.1693 256.188 25.3359 256.75 25.3359C257.62 25.3359 258.299 25.0208 258.789 24.3906L259.898 25.6328C259.56 26.112 259.102 26.487 258.523 26.7578C257.945 27.0234 257.305 27.1562 256.602 27.1562ZM256.344 20.2188C255.896 20.2188 255.531 20.3698 255.25 20.6719C254.974 20.974 254.797 21.4062 254.719 21.9688H257.859V21.7891C257.849 21.2891 257.714 20.9036 257.453 20.6328C257.193 20.3568 256.823 20.2188 256.344 20.2188ZM264.883 25.3359C265.299 25.3359 265.638 25.2214 265.898 24.9922C266.159 24.763 266.294 24.4583 266.305 24.0781H268.422C268.417 24.651 268.26 25.1771 267.953 25.6562C267.646 26.1302 267.224 26.5 266.688 26.7656C266.156 27.026 265.568 27.1562 264.922 27.1562C263.714 27.1562 262.76 26.7734 262.062 26.0078C261.365 25.237 261.016 24.1745 261.016 22.8203V22.6719C261.016 21.3698 261.362 20.3307 262.055 19.5547C262.747 18.7786 263.698 18.3906 264.906 18.3906C265.964 18.3906 266.81 18.6927 267.445 19.2969C268.086 19.8958 268.411 20.6953 268.422 21.6953H266.305C266.294 21.2578 266.159 20.9036 265.898 20.6328C265.638 20.3568 265.294 20.2188 264.867 20.2188C264.341 20.2188 263.943 20.4115 263.672 20.7969C263.406 21.1771 263.273 21.7969 263.273 22.6562V22.8906C263.273 23.7604 263.406 24.3854 263.672 24.7656C263.938 25.1458 264.341 25.3359 264.883 25.3359ZM272.125 21.0234H273.742C274.471 21.0234 275.112 21.1458 275.664 21.3906C276.216 21.6354 276.638 21.987 276.93 22.4453C277.227 22.8984 277.375 23.4271 277.375 24.0312C277.375 24.9219 277.044 25.6406 276.383 26.1875C275.727 26.7292 274.831 27 273.695 27H269.859V18.5469H272.125V21.0234ZM272.125 22.8359V25.1953H273.727C274.174 25.1953 274.518 25.0911 274.758 24.8828C274.997 24.6745 275.117 24.3906 275.117 24.0312C275.117 23.6667 275 23.3776 274.766 23.1641C274.531 22.9453 274.185 22.8359 273.727 22.8359H272.125ZM286.148 25.3359C286.565 25.3359 286.904 25.2214 287.164 24.9922C287.424 24.763 287.56 24.4583 287.57 24.0781H289.688C289.682 24.651 289.526 25.1771 289.219 25.6562C288.911 26.1302 288.49 26.5 287.953 26.7656C287.422 27.026 286.833 27.1562 286.188 27.1562C284.979 27.1562 284.026 26.7734 283.328 26.0078C282.63 25.237 282.281 24.1745 282.281 22.8203V22.6719C282.281 21.3698 282.628 20.3307 283.32 19.5547C284.013 18.7786 284.964 18.3906 286.172 18.3906C287.229 18.3906 288.076 18.6927 288.711 19.2969C289.352 19.8958 289.677 20.6953 289.688 21.6953H287.57C287.56 21.2578 287.424 20.9036 287.164 20.6328C286.904 20.3568 286.56 20.2188 286.133 20.2188C285.607 20.2188 285.208 20.4115 284.938 20.7969C284.672 21.1771 284.539 21.7969 284.539 22.6562V22.8906C284.539 23.7604 284.672 24.3854 284.938 24.7656C285.203 25.1458 285.607 25.3359 286.148 25.3359ZM294.609 22.6953C294.609 21.8568 294.771 21.1094 295.094 20.4531C295.417 19.7969 295.88 19.2891 296.484 18.9297C297.094 18.5703 297.799 18.3906 298.602 18.3906C299.742 18.3906 300.672 18.7396 301.391 19.4375C302.115 20.1354 302.518 21.0833 302.602 22.2812L302.617 22.8594C302.617 24.1562 302.255 25.1979 301.531 25.9844C300.807 26.7656 299.836 27.1562 298.617 27.1562C297.398 27.1562 296.424 26.7656 295.695 25.9844C294.971 25.2031 294.609 24.1406 294.609 22.7969V22.6953ZM296.867 22.8594C296.867 23.6615 297.018 24.276 297.32 24.7031C297.622 25.125 298.055 25.3359 298.617 25.3359C299.164 25.3359 299.591 25.1276 299.898 24.7109C300.206 24.2891 300.359 23.6172 300.359 22.6953C300.359 21.9089 300.206 21.2995 299.898 20.8672C299.591 20.4349 299.159 20.2188 298.602 20.2188C298.049 20.2188 297.622 20.4349 297.32 20.8672C297.018 21.2943 296.867 21.9583 296.867 22.8594ZM303.562 25.1797C304.073 24.638 304.419 24.1016 304.602 23.5703C304.784 23.0391 304.885 22.2865 304.906 21.3125L304.969 18.5469H311.188V25.1797H312.406V29.5391H310.148V27H305.141V29.5391H302.836V25.1797H303.562ZM306.227 25.1797H308.938V20.4141H307.18L307.164 21.4297C307.117 22.9818 306.805 24.2318 306.227 25.1797ZM320.742 27H318.477V23.75H315.672V27H313.414V18.5469H315.672V21.9375H318.477V18.5469H320.742V27ZM327.586 18.5469H329.844V27H327.586V21.7812L324.758 27H322.492V18.5469H324.758V23.7578L327.586 18.5469ZM336.719 24.3359L338.93 18.5469H341.758V27H339.5V21.8125L337.477 27H335.961L333.977 21.8984V27H331.719V18.5469H334.523L336.719 24.3359ZM115.961 37.5469H118.219V46H115.961V40.7812L113.133 46H110.867V37.5469H113.133V42.7578L115.961 37.5469ZM124.383 40.0391C124.383 39.7422 124.284 39.513 124.086 39.3516C123.893 39.1849 123.617 39.1016 123.258 39.1016C122.888 39.1016 122.586 39.1797 122.352 39.3359C122.122 39.487 122.008 39.7031 122.008 39.9844H119.75C119.75 39.2188 120.068 38.5964 120.703 38.1172C121.339 37.638 122.151 37.3984 123.141 37.3984C124.229 37.3984 125.083 37.612 125.703 38.0391C126.328 38.4661 126.641 39.0729 126.641 39.8594C126.641 40.2344 126.526 40.5807 126.297 40.8984C126.073 41.2109 125.755 41.4609 125.344 41.6484C126.307 41.987 126.789 42.6406 126.789 43.6094C126.789 44.3854 126.456 45.0052 125.789 45.4688C125.128 45.9271 124.245 46.1562 123.141 46.1562C122.115 46.1562 121.271 45.9167 120.609 45.4375C119.948 44.9583 119.617 44.3125 119.617 43.5H121.875C121.875 43.7865 122.003 44.0182 122.258 44.1953C122.513 44.3724 122.846 44.4609 123.258 44.4609C123.659 44.4609 123.971 44.3672 124.195 44.1797C124.419 43.9922 124.531 43.7474 124.531 43.4453C124.531 43.0755 124.424 42.8125 124.211 42.6562C123.997 42.4948 123.677 42.4141 123.25 42.4141H122.023V40.9453H123.328C124.031 40.9245 124.383 40.6224 124.383 40.0391ZM135.664 44.3359C136.081 44.3359 136.419 44.2214 136.68 43.9922C136.94 43.763 137.076 43.4583 137.086 43.0781H139.203C139.198 43.651 139.042 44.1771 138.734 44.6562C138.427 45.1302 138.005 45.5 137.469 45.7656C136.938 46.026 136.349 46.1562 135.703 46.1562C134.495 46.1562 133.542 45.7734 132.844 45.0078C132.146 44.237 131.797 43.1745 131.797 41.8203V41.6719C131.797 40.3698 132.143 39.3307 132.836 38.5547C133.529 37.7786 134.479 37.3906 135.688 37.3906C136.745 37.3906 137.591 37.6927 138.227 38.2969C138.867 38.8958 139.193 39.6953 139.203 40.6953H137.086C137.076 40.2578 136.94 39.9036 136.68 39.6328C136.419 39.3568 136.076 39.2188 135.648 39.2188C135.122 39.2188 134.724 39.4115 134.453 39.7969C134.188 40.1771 134.055 40.7969 134.055 41.6562V41.8906C134.055 42.7604 134.188 43.3854 134.453 43.7656C134.719 44.1458 135.122 44.3359 135.664 44.3359ZM140.641 46V37.5469H144.172C145.323 37.5469 146.206 37.75 146.82 38.1562C147.435 38.5625 147.742 39.1458 147.742 39.9062C147.742 40.2969 147.612 40.6484 147.352 40.9609C147.096 41.2682 146.721 41.5052 146.227 41.6719C146.831 41.7865 147.305 42.013 147.648 42.3516C147.997 42.6849 148.172 43.0964 148.172 43.5859C148.172 44.3724 147.875 44.9714 147.281 45.3828C146.693 45.7943 145.836 46 144.711 46H140.641ZM142.898 42.4922V44.1953H144.719C145.516 44.1953 145.914 43.9167 145.914 43.3594C145.914 42.7917 145.534 42.5026 144.773 42.4922H142.898ZM142.898 40.9766H144.297C145.089 40.9661 145.484 40.7109 145.484 40.2109C145.484 39.9036 145.375 39.6849 145.156 39.5547C144.943 39.4245 144.615 39.3594 144.172 39.3594H142.898V40.9766ZM149.203 41.6953C149.203 40.8568 149.365 40.1094 149.688 39.4531C150.01 38.7969 150.474 38.2891 151.078 37.9297C151.688 37.5703 152.393 37.3906 153.195 37.3906C154.336 37.3906 155.266 37.7396 155.984 38.4375C156.708 39.1354 157.112 40.0833 157.195 41.2812L157.211 41.8594C157.211 43.1562 156.849 44.1979 156.125 44.9844C155.401 45.7656 154.43 46.1562 153.211 46.1562C151.992 46.1562 151.018 45.7656 150.289 44.9844C149.565 44.2031 149.203 43.1406 149.203 41.7969V41.6953ZM151.461 41.8594C151.461 42.6615 151.612 43.276 151.914 43.7031C152.216 44.125 152.648 44.3359 153.211 44.3359C153.758 44.3359 154.185 44.1276 154.492 43.7109C154.799 43.2891 154.953 42.6172 154.953 41.6953C154.953 40.9089 154.799 40.2995 154.492 39.8672C154.185 39.4349 153.753 39.2188 153.195 39.2188C152.643 39.2188 152.216 39.4349 151.914 39.8672C151.612 40.2943 151.461 40.9583 151.461 41.8594ZM163.695 37.5469H165.953V46H163.695V40.7812L160.867 46H158.602V37.5469H160.867V42.7578L163.695 37.5469ZM170.898 40.0703L172.32 37.5469H174.734L172.328 41.6875L174.836 46H172.414L170.906 43.3438L169.406 46H166.977L169.484 41.6875L167.086 37.5469H169.508L170.898 40.0703ZM184 38.0156C185.083 38.0156 185.948 38.375 186.594 39.0938C187.24 39.8125 187.562 40.7891 187.562 42.0234V42.1328C187.562 43.3516 187.203 44.3281 186.484 45.0625C185.766 45.7969 184.799 46.1641 183.586 46.1641C182.367 46.1641 181.396 45.7682 180.672 44.9766C179.953 44.1797 179.594 43.099 179.594 41.7344V41.3594C179.604 39.4583 179.924 37.9714 180.555 36.8984C181.19 35.8203 182.143 35.1406 183.414 34.8594C184.081 34.7135 184.51 34.5703 184.703 34.4297C184.896 34.2839 184.992 34.0833 184.992 33.8281H186.82C186.82 34.6458 186.599 35.2604 186.156 35.6719C185.719 36.0833 184.938 36.401 183.812 36.625C183.146 36.7604 182.62 37.0234 182.234 37.4141C181.849 37.8047 181.589 38.3542 181.453 39.0625C182.172 38.3646 183.021 38.0156 184 38.0156ZM183.57 39.8438C183.034 39.8438 182.612 40.0234 182.305 40.3828C182.003 40.7422 181.852 41.3255 181.852 42.1328C181.852 42.8516 182 43.401 182.297 43.7812C182.594 44.1562 183.023 44.3438 183.586 44.3438C184.133 44.3438 184.555 44.1589 184.852 43.7891C185.148 43.4193 185.299 42.875 185.305 42.1562V41.9688C185.305 41.276 185.151 40.75 184.844 40.3906C184.542 40.026 184.117 39.8438 183.57 39.8438ZM192.07 42.8047L193.633 37.5469H196.055L192.656 47.3125L192.469 47.7578C191.964 48.862 191.13 49.4141 189.969 49.4141C189.641 49.4141 189.307 49.3646 188.969 49.2656V47.5547L189.312 47.5625C189.74 47.5625 190.057 47.4974 190.266 47.3672C190.479 47.237 190.646 47.0208 190.766 46.7188L191.031 46.0234L188.07 37.5469H190.5L192.07 42.8047ZM196.625 44.1797C197.135 43.638 197.482 43.1016 197.664 42.5703C197.846 42.0391 197.948 41.2865 197.969 40.3125L198.031 37.5469H204.25V44.1797H205.469V48.5391H203.211V46H198.203V48.5391H195.898V44.1797H196.625ZM199.289 44.1797H202V39.4141H200.242L200.227 40.4297C200.18 41.9818 199.867 43.2318 199.289 44.1797ZM209.773 42.8047L211.336 37.5469H213.758L210.359 47.3125L210.172 47.7578C209.667 48.862 208.833 49.4141 207.672 49.4141C207.344 49.4141 207.01 49.3646 206.672 49.2656V47.5547L207.016 47.5625C207.443 47.5625 207.76 47.4974 207.969 47.3672C208.182 47.237 208.349 47.0208 208.469 46.7188L208.734 46.0234L205.773 37.5469H208.203L209.773 42.8047ZM216.883 37.5469V44.1797H219.203V37.5469H221.469V44.1797H223.781V37.5469H226.047V44.1953H227.727L227.57 48.5078H225.469V46H214.625V37.5469H216.883ZM234.148 37.5469H236.406V46H234.148V40.7812L231.32 46H229.055V37.5469H231.32V42.7578L234.148 37.5469ZM241.352 40.0703L242.773 37.5469H245.188L242.781 41.6875L245.289 46H242.867L241.359 43.3438L239.859 46H237.43L239.938 41.6875L237.539 37.5469H239.961L241.352 40.0703ZM118.219 65H115.953V58.375H113.125V65H110.867V56.5469H118.219V65ZM127.555 60.8516C127.555 62.1536 127.258 63.1979 126.664 63.9844C126.076 64.7656 125.279 65.1562 124.273 65.1562C123.419 65.1562 122.729 64.8594 122.203 64.2656V68.25H119.945V56.5469H122.039L122.117 57.375C122.664 56.7188 123.378 56.3906 124.258 56.3906C125.299 56.3906 126.109 56.776 126.688 57.5469C127.266 58.3177 127.555 59.3802 127.555 60.7344V60.8516ZM125.297 60.6875C125.297 59.901 125.156 59.2943 124.875 58.8672C124.599 58.4401 124.195 58.2266 123.664 58.2266C122.956 58.2266 122.469 58.4974 122.203 59.0391V62.5C122.479 63.0573 122.971 63.3359 123.68 63.3359C124.758 63.3359 125.297 62.4531 125.297 60.6875ZM132.852 65.1562C131.612 65.1562 130.602 64.776 129.82 64.0156C129.044 63.2552 128.656 62.2422 128.656 60.9766V60.7578C128.656 59.9089 128.82 59.151 129.148 58.4844C129.477 57.8125 129.94 57.2969 130.539 56.9375C131.143 56.5729 131.831 56.3906 132.602 56.3906C133.758 56.3906 134.667 56.7552 135.328 57.4844C135.995 58.2135 136.328 59.2474 136.328 60.5859V61.5078H130.945C131.018 62.0599 131.237 62.5026 131.602 62.8359C131.971 63.1693 132.438 63.3359 133 63.3359C133.87 63.3359 134.549 63.0208 135.039 62.3906L136.148 63.6328C135.81 64.112 135.352 64.487 134.773 64.7578C134.195 65.0234 133.555 65.1562 132.852 65.1562ZM132.594 58.2188C132.146 58.2188 131.781 58.3698 131.5 58.6719C131.224 58.974 131.047 59.4062 130.969 59.9688H134.109V59.7891C134.099 59.2891 133.964 58.9036 133.703 58.6328C133.443 58.3568 133.073 58.2188 132.594 58.2188ZM144.969 65H142.703V58.375H139.875V65H137.617V56.5469H144.969V65ZM146.344 60.6953C146.344 59.8568 146.505 59.1094 146.828 58.4531C147.151 57.7969 147.615 57.2891 148.219 56.9297C148.828 56.5703 149.534 56.3906 150.336 56.3906C151.477 56.3906 152.406 56.7396 153.125 57.4375C153.849 58.1354 154.253 59.0833 154.336 60.2812L154.352 60.8594C154.352 62.1562 153.99 63.1979 153.266 63.9844C152.542 64.7656 151.57 65.1562 150.352 65.1562C149.133 65.1562 148.159 64.7656 147.43 63.9844C146.706 63.2031 146.344 62.1406 146.344 60.7969V60.6953ZM148.602 60.8594C148.602 61.6615 148.753 62.276 149.055 62.7031C149.357 63.125 149.789 63.3359 150.352 63.3359C150.898 63.3359 151.326 63.1276 151.633 62.7109C151.94 62.2891 152.094 61.6172 152.094 60.6953C152.094 59.9089 151.94 59.2995 151.633 58.8672C151.326 58.4349 150.893 58.2188 150.336 58.2188C149.784 58.2188 149.357 58.4349 149.055 58.8672C148.753 59.2943 148.602 59.9583 148.602 60.8594ZM155.297 63.1797C155.807 62.638 156.154 62.1016 156.336 61.5703C156.518 61.0391 156.62 60.2865 156.641 59.3125L156.703 56.5469H162.922V63.1797H164.141V67.5391H161.883V65H156.875V67.5391H154.57V63.1797H155.297ZM157.961 63.1797H160.672V58.4141H158.914L158.898 59.4297C158.852 60.9818 158.539 62.2318 157.961 63.1797ZM170.188 65C170.083 64.7969 170.008 64.5443 169.961 64.2422C169.414 64.8516 168.703 65.1562 167.828 65.1562C167 65.1562 166.312 64.9167 165.766 64.4375C165.224 63.9583 164.953 63.3542 164.953 62.625C164.953 61.7292 165.284 61.0417 165.945 60.5625C166.612 60.0833 167.573 59.8411 168.828 59.8359H169.867V59.3516C169.867 58.9609 169.766 58.6484 169.562 58.4141C169.365 58.1797 169.049 58.0625 168.617 58.0625C168.237 58.0625 167.938 58.1536 167.719 58.3359C167.505 58.5182 167.398 58.7682 167.398 59.0859H165.141C165.141 58.5964 165.292 58.1432 165.594 57.7266C165.896 57.3099 166.323 56.9844 166.875 56.75C167.427 56.5104 168.047 56.3906 168.734 56.3906C169.776 56.3906 170.602 56.6536 171.211 57.1797C171.826 57.7005 172.133 58.4349 172.133 59.3828V63.0469C172.138 63.849 172.25 64.4557 172.469 64.8672V65H170.188ZM168.32 63.4297C168.654 63.4297 168.961 63.3568 169.242 63.2109C169.523 63.0599 169.732 62.8594 169.867 62.6094V61.1562H169.023C167.893 61.1562 167.292 61.5469 167.219 62.3281L167.211 62.4609C167.211 62.7422 167.31 62.974 167.508 63.1562C167.706 63.3385 167.977 63.4297 168.32 63.4297ZM174.016 65V56.5469H177.547C178.698 56.5469 179.581 56.75 180.195 57.1562C180.81 57.5625 181.117 58.1458 181.117 58.9062C181.117 59.2969 180.987 59.6484 180.727 59.9609C180.471 60.2682 180.096 60.5052 179.602 60.6719C180.206 60.7865 180.68 61.013 181.023 61.3516C181.372 61.6849 181.547 62.0964 181.547 62.5859C181.547 63.3724 181.25 63.9714 180.656 64.3828C180.068 64.7943 179.211 65 178.086 65H174.016ZM176.273 61.4922V63.1953H178.094C178.891 63.1953 179.289 62.9167 179.289 62.3594C179.289 61.7917 178.909 61.5026 178.148 61.4922H176.273ZM176.273 59.9766H177.672C178.464 59.9661 178.859 59.7109 178.859 59.2109C178.859 58.9036 178.75 58.6849 178.531 58.5547C178.318 58.4245 177.99 58.3594 177.547 58.3594H176.273V59.9766ZM187.828 65C187.724 64.7969 187.648 64.5443 187.602 64.2422C187.055 64.8516 186.344 65.1562 185.469 65.1562C184.641 65.1562 183.953 64.9167 183.406 64.4375C182.865 63.9583 182.594 63.3542 182.594 62.625C182.594 61.7292 182.924 61.0417 183.586 60.5625C184.253 60.0833 185.214 59.8411 186.469 59.8359H187.508V59.3516C187.508 58.9609 187.406 58.6484 187.203 58.4141C187.005 58.1797 186.69 58.0625 186.258 58.0625C185.878 58.0625 185.578 58.1536 185.359 58.3359C185.146 58.5182 185.039 58.7682 185.039 59.0859H182.781C182.781 58.5964 182.932 58.1432 183.234 57.7266C183.536 57.3099 183.964 56.9844 184.516 56.75C185.068 56.5104 185.688 56.3906 186.375 56.3906C187.417 56.3906 188.242 56.6536 188.852 57.1797C189.466 57.7005 189.773 58.4349 189.773 59.3828V63.0469C189.779 63.849 189.891 64.4557 190.109 64.8672V65H187.828ZM185.961 63.4297C186.294 63.4297 186.602 63.3568 186.883 63.2109C187.164 63.0599 187.372 62.8594 187.508 62.6094V61.1562H186.664C185.534 61.1562 184.932 61.5469 184.859 62.3281L184.852 62.4609C184.852 62.7422 184.951 62.974 185.148 63.1562C185.346 63.3385 185.617 63.4297 185.961 63.4297ZM198.398 58.3594H195.688V65H193.422V58.3594H190.758V56.5469H198.398V58.3594ZM202.93 65.1562C201.69 65.1562 200.68 64.776 199.898 64.0156C199.122 63.2552 198.734 62.2422 198.734 60.9766V60.7578C198.734 59.9089 198.898 59.151 199.227 58.4844C199.555 57.8125 200.018 57.2969 200.617 56.9375C201.221 56.5729 201.909 56.3906 202.68 56.3906C203.836 56.3906 204.745 56.7552 205.406 57.4844C206.073 58.2135 206.406 59.2474 206.406 60.5859V61.5078H201.023C201.096 62.0599 201.315 62.5026 201.68 62.8359C202.049 63.1693 202.516 63.3359 203.078 63.3359C203.948 63.3359 204.628 63.0208 205.117 62.3906L206.227 63.6328C205.888 64.112 205.43 64.487 204.852 64.7578C204.273 65.0234 203.633 65.1562 202.93 65.1562ZM202.672 58.2188C202.224 58.2188 201.859 58.3698 201.578 58.6719C201.302 58.974 201.125 59.4062 201.047 59.9688H204.188V59.7891C204.177 59.2891 204.042 58.9036 203.781 58.6328C203.521 58.3568 203.151 58.2188 202.672 58.2188ZM215.047 56.5469V65H212.789V58.375H210.797L210.656 60.9844C210.568 62.375 210.294 63.388 209.836 64.0234C209.378 64.6589 208.695 64.9844 207.789 65H207.023L207 63.1641L207.281 63.1406C207.688 63.1094 207.984 62.8698 208.172 62.4219C208.359 61.974 208.477 61.2109 208.523 60.1328L208.68 56.5469H215.047ZM220.68 65.1562C219.44 65.1562 218.43 64.776 217.648 64.0156C216.872 63.2552 216.484 62.2422 216.484 60.9766V60.7578C216.484 59.9089 216.648 59.151 216.977 58.4844C217.305 57.8125 217.768 57.2969 218.367 56.9375C218.971 56.5729 219.659 56.3906 220.43 56.3906C221.586 56.3906 222.495 56.7552 223.156 57.4844C223.823 58.2135 224.156 59.2474 224.156 60.5859V61.5078H218.773C218.846 62.0599 219.065 62.5026 219.43 62.8359C219.799 63.1693 220.266 63.3359 220.828 63.3359C221.698 63.3359 222.378 63.0208 222.867 62.3906L223.977 63.6328C223.638 64.112 223.18 64.487 222.602 64.7578C222.023 65.0234 221.383 65.1562 220.68 65.1562ZM220.422 58.2188C219.974 58.2188 219.609 58.3698 219.328 58.6719C219.052 58.974 218.875 59.4062 218.797 59.9688H221.938V59.7891C221.927 59.2891 221.792 58.9036 221.531 58.6328C221.271 58.3568 220.901 58.2188 220.422 58.2188ZM230.539 56.5469H232.797V65H230.539V59.7812L227.711 65H225.445V56.5469H227.711V61.7578L230.539 56.5469ZM231.867 53.1172C231.867 53.8099 231.617 54.3698 231.117 54.7969C230.622 55.224 229.971 55.4375 229.164 55.4375C228.357 55.4375 227.703 55.2266 227.203 54.8047C226.708 54.3828 226.461 53.8203 226.461 53.1172H228.062C228.062 53.4453 228.159 53.7005 228.352 53.8828C228.549 54.0599 228.82 54.1484 229.164 54.1484C229.503 54.1484 229.768 54.0599 229.961 53.8828C230.154 53.7005 230.25 53.4453 230.25 53.1172H231.867Z" fill="#666666"/>
<g clip-path="url(#clip0_51_127)">
<g clip-path="url(#clip1_51_127)">
<path d="M37.9097 43.3674C37.9097 43.6773 38.1609 43.9286 38.4709 43.9286H39.1893C39.0672 43.5678 39.0232 43.1852 39.0602 42.8062H38.4709C38.1609 42.8062 37.9097 43.0574 37.9097 43.3674Z" fill="#212133"/>
<path d="M42.3527 24.3258C41.9158 24.2327 41.4598 24.317 41.0851 24.5601C40.7104 24.8033 40.4477 25.1853 40.3547 25.6223L38.7384 35.9264C38.6658 36.3185 38.3296 36.607 37.931 36.6191C37.5323 36.6313 37.1792 36.3639 37.0828 35.9769L35.1017 26.8626C35.0133 26.2532 34.5994 25.7407 34.0222 25.5261C33.4451 25.3115 32.7968 25.4291 32.3318 25.8327C31.8668 26.2362 31.6592 26.8615 31.7904 27.4631L33.6706 37.7559C33.8156 38.5397 33.806 39.3442 33.6425 40.1243C34.2164 39.5579 34.8297 39.0328 35.4777 38.5529C36.1519 38.0386 36.9757 37.7588 37.8236 37.7559H41.5726L43.6491 26.3294C43.7439 25.8917 43.6605 25.4343 43.4172 25.0583C43.1739 24.6823 42.7908 24.4187 42.3527 24.3258Z" fill="#212133"/>
<path d="M43.1222 45.1183C42.8293 45.3305 42.4975 45.4831 42.1457 45.5673C42.2219 45.6896 42.2894 45.8172 42.3477 45.9489C42.4232 46.1218 42.4068 46.3211 42.3039 46.4793C42.2011 46.6375 42.0257 46.7334 41.837 46.7347C41.6152 46.7332 41.415 46.6012 41.3263 46.3979C40.9681 45.5772 40.1565 45.0479 39.261 45.051H38.4697C37.5398 45.051 36.786 44.2972 36.786 43.3673C36.786 42.4374 37.5398 41.6836 38.4697 41.6836H40.1534C41.3932 41.6836 42.3983 40.6786 42.3983 39.4387V38.8775H37.8243C37.2171 38.8775 36.6263 39.0744 36.1406 39.4387C33.9406 41.0775 31.735 43.5188 31.735 46.3025C31.7334 47.5568 32.126 48.7799 32.8574 49.7989L35.6636 53.6714C36.0898 54.2629 36.2891 54.988 36.2248 55.7142H45.7656C45.7656 54.1877 45.6141 54.5918 48.0835 50.3882C48.7329 49.0753 49.0909 47.6376 49.1329 46.1734V43.5806L47.8253 45.6627C47.3097 46.5515 46.3161 47.0499 45.2954 46.9318C44.2746 46.8136 43.4212 46.1014 43.1222 45.1183Z" fill="#212133"/>
<path d="M40.18 42.8061C40.0771 43.2768 40.2209 43.7674 40.5616 44.1081C40.9023 44.4488 41.393 44.5926 41.8637 44.4897C42.6774 44.3101 42.9861 43.676 43.407 42.9576C45.6968 39.2984 45.6126 39.4443 45.6519 39.3321C46.1673 38.6082 45.999 37.6036 45.2759 37.0872C44.9118 36.8836 44.4813 36.8343 44.0806 36.9503C43.6799 37.0663 43.3423 37.3379 43.1433 37.7045L42.9917 37.9459C43.3139 38.1471 43.5124 38.4977 43.5193 38.8775V39.4387C43.5193 41.2875 42.0288 42.7907 40.18 42.8061Z" fill="#212133"/>
<path d="M49.0221 38.8774C48.2933 38.4623 47.366 38.7129 46.9456 39.4387C46.6201 39.9662 47.1701 39.0346 44.3696 43.5581C44.1487 43.9065 44.076 44.3287 44.1675 44.731C44.3148 45.3223 44.8127 45.7607 45.4179 45.8318C46.0231 45.9029 46.6091 45.5919 46.8895 45.0509L49.4711 40.9484C49.9189 40.2525 49.7179 39.3254 49.0221 38.8774Z" fill="#212133"/>
</g>
<path fill-rule="evenodd" clip-rule="evenodd" d="M24.6927 3.04482C29.5457 1.03463 34.7471 0 40 0C45.2529 0 50.4543 1.03463 55.3073 3.04482C60.1604 5.05501 64.5699 8.00138 68.2843 11.7157C71.9986 15.4301 74.945 19.8396 76.9552 24.6927C78.9654 29.5457 80 34.7471 80 40C80 50.6087 75.7857 60.7828 68.2843 68.2843C60.7828 75.7857 50.6087 80 40 80C34.7471 80 29.5457 78.9654 24.6927 76.9552C19.8396 74.945 15.4301 71.9986 11.7157 68.2843C4.21427 60.7828 0 50.6087 0 40C0 29.3913 4.21427 19.2172 11.7157 11.7157C15.4301 8.00138 19.8396 5.05501 24.6927 3.04482ZM40.3571 62.1429C52.3891 62.1429 62.1429 52.3891 62.1429 40.3571C62.1429 28.3252 52.3891 18.5714 40.3571 18.5714C28.3252 18.5714 18.5714 28.3252 18.5714 40.3571C18.5714 52.3891 28.3252 62.1429 40.3571 62.1429Z" fill="#3F2AFF"/>
</g>
<defs>
<clipPath id="clip0_51_127">
<rect width="80" height="80" fill="white"/>
</clipPath>
<clipPath id="clip1_51_127">
<rect width="31.4286" height="31.4286" fill="white" transform="translate(25 24.2857)"/>
</clipPath>
</defs>
</svg>
